<svg version="1.1" xmlns="http://www.w3.org/2000/svg" viewBox="0 0 256 256">
  <g>
    <g>
      <g>
        <path fill="currentCollor"
          d="M113.2,10.5c-3.6,1-6.9,3.1-9.6,6.1l-2.6,2.9l-10.3,0.2c-9.4,0.1-10.6,0.2-12.5,1.2c-2.8,1.3-6,4.2-7.3,6.8l-1.1,2.1H55.6c-16.8,0-17.2,0-21.5,4.4c-4.9,4.8-4.4-6.5-4.3,104.5l0.1,97.1l1.1,2c1.6,3,4.1,5.5,6.9,6.9l2.6,1.3l66.3,0.1c73.8,0.1,68.4,0.3,69.8-3c0.9-2.1,0.5-4-1.3-5.4l-1.4-1.2h-65c-55.2,0-65.3-0.1-66.6-0.6c-3.2-1.4-3,6.9-3-98.4V42.5l1.6-1.6l1.6-1.6h13.2H69v3c0,3.5,0.8,5.4,2.5,6.1C72.4,48.9,84,49,118.6,49h46l1.3-1.3c1.2-1.2,1.3-1.6,1.3-4.8v-3.5h12.9c9,0,13.2,0.2,14.1,0.6c2.6,1.2,2.5,0,2.5,38.4c0,31.3,0.1,35.6,0.7,36.9c0.9,1.9,3.4,3.2,5.3,2.8c1.8-0.4,3.6-2.3,3.9-4.1c0.1-0.8,0.2-17.5,0.1-37.2L206.7,41l-1.2-2.6c-1.6-3.5-4.8-6.5-8-7.7c-2.4-0.9-3.5-1-16.5-1h-14l-1.8-2.8c-2-3-3.7-4.6-7.1-6.1c-2-0.9-3.1-1-12.6-1.2L135,19.3l-1.7-2.1c-1.8-2.3-5.3-4.8-8.6-6.1C122.1,10,116,9.6,113.2,10.5z M122.5,20.7c1.7,0.9,3.9,3.4,5.1,5.7c1.6,3.1,2.3,3.3,15.2,3.3c7.6,0,11.4,0.2,12.3,0.6c1.8,0.8,2.5,2.7,2.5,6.1v3h-39.4H78.7v-2.5c0-3,0.9-5.4,2.4-6.4c0.9-0.6,2.7-0.7,12.4-0.7c13.2,0,13.7-0.1,15.8-3.9c1.5-2.8,4-5.1,6.3-5.7C117.5,19.5,120.8,19.8,122.5,20.7z" />
        <path fill="currentCollor"
          d="M202.1,128.4c-7.8,2-14.3,9.7-14.9,17.7l-0.3,3.4L164,160.9l-22.9,11.4l-2-1.4c-9.5-6.9-23.7-3.2-28.7,7.5c-2.8,5.9-2.8,11.3,0,17.2c5,10.7,19.1,14.4,28.6,7.6c1-0.8,2.1-1.4,2.3-1.4s10.6,5.1,23,11.3l22.6,11.3l0.3,3.5c0.5,6.9,4.8,13.1,11.3,16.3c3.3,1.6,3.7,1.7,7.8,1.7c5.4,0,8.1-0.9,12-3.7c5.4-4,8.1-9.8,7.7-16.7c-0.3-7.3-4.2-13.2-10.9-16.6c-3.4-1.7-3.6-1.7-8.6-1.7c-4.9,0-5.2,0.1-8.3,1.6c-2,1-4.2,2.5-5.6,4.1l-2.4,2.4l-21.8-10.8l-21.7-10.9l0.4-2.4c0.2-1.3,0.4-3.1,0.4-4s-0.1-2.7-0.4-4l-0.4-2.4l21.7-10.9l21.7-10.8l2.5,2.5c1.5,1.5,3.8,3.1,5.6,4c3,1.5,3.4,1.6,8.3,1.6c5,0,5.2,0,8.6-1.7c6.7-3.3,10.6-9.2,10.9-16.6c0.2-4.9-0.6-7.9-3.1-11.8c-2.1-3.2-5.8-6.2-9.4-7.6C210.9,128.2,204.9,127.7,202.1,128.4z M211.8,139.3c5.4,3.1,6.2,10.8,1.8,15.2c-3.2,3.2-7.2,3.8-11.3,1.8c-6-3-7.2-10.9-2.4-15.5C203.2,137.5,207.8,137,211.8,139.3z M132.6,178.4c1.1,0.6,2.6,1.9,3.5,3c1.3,1.8,1.4,2.3,1.4,5.5c0,3.1-0.1,3.8-1.2,5.4c-0.7,1-2,2.3-3,3c-1.4,1-2.2,1.2-5.3,1.2c-3.3,0-3.7-0.1-5.5-1.4c-3-2.2-4.2-4.8-4-8.6c0.1-2.5,0.4-3.5,1.5-5C122.8,177.4,128.3,176.1,132.6,178.4z M212,218.1c2.5,1.7,4.1,4.3,4.4,7.4c0.5,4.9-2.8,9.4-7.7,10.5c-6.6,1.5-13-5-11.5-11.5c0.6-3,2.4-5.3,5.2-6.7C205.5,216.1,209.2,216.2,212,218.1z" />
      </g>
    </g>
  </g>
</svg>
