<svg version="1.1" viewBox="0 0 878.38 156.96" xmlns="http://www.w3.org/2000/svg">
  <g transform="translate(-175.84 -176.45) rotate(-2)">
    <path
      fill="currentColor"
      fill-opacity=".025"
      d="m398.77 331.72c-13.18-6.7812-23.762-19.288-27.511-32.515-0.69459-2.4505-0.75188-4.6456-0.75188-28.808 0-26.155 0-26.155 11.239-26.155s11.239 0 11.443 25.951c0.22679 28.803 0.0348 26.873 3.1903 32.081 4.6496 7.6744 8.8931 7.4696 13.321-0.64299 2.9945-5.4866 2.8481-3.9179 3.0017-32.153 0.13834-25.44 0.13834-25.44 11.36-25.44 11.221 0 11.221 0 11.207 25.849-0.0152 27.344-0.0653 28.179-1.9769 32.919-4.6524 11.536-16.106 23.61-28.135 29.66-2.6744 1.3451-2.2204 1.3981-6.3857-0.74499zm-196.03 0.7352c-12.14-1.8232-21.172-7.7615-25.418-16.711-1.35-2.8453-1.35-2.8453-1.4654-37.283-0.11545-34.438-0.11545-34.438 11.239-34.329 11.354 0.10871 11.354 0.10871 11.558 30.79 0.20434 30.681 0.20434 30.681 1.2701 32.291 4.2875 6.478 16.261 4.7839 17.96-2.5412 0.2018-0.86968 0.37127-14.868 0.37663-31.108 0.01-29.527 0.01-29.527 11.453-29.527 11.443 0 11.443 0 11.44 32.388-3e-3 35.532-0.0364 36.101-2.3457 40.495-5.7393 10.922-21.521 17.72-36.067 15.535zm649.87-0.14467c-36.638-5.1738-52.295-49.002-26.772-74.942 25.821-26.243 72.018-14.084 80.11 21.085 7.0602 30.684-20.484 58.496-53.338 53.857zm12.715-22.261c29.137-6.174 20.507-48.975-8.9526-44.404-26.527 4.1157-26.489 39.215 0.0475 44.742 1.8408 0.38335 6.3018 0.21447 8.9051-0.33715zm-610.09 20.934c-0.10703-0.28097-0.14726-19.913-0.0893-43.626 0.10534-43.115 0.10534-43.115 6.2354-43.233 17.373-0.33385 28.557 2.7488 35.121 9.6801 1.792 1.8924 1.8648 1.7263 1.8648-4.2559 0-5.5235 0-5.5235 11.545-5.415 11.545 0.10857 11.545 0.10857 11.545 43.633 0 43.524 0 43.524-11.647 43.524s-11.647 0-11.872-18.39c-0.31695-25.955-2.8214-31.789-16.649-38.782-3.1508-1.5936-2.9476-3.5501-2.9476 28.385 0 28.992 0 28.992-11.456 28.992-8.7884 0-11.501-0.11896-11.65-0.51083zm80.103 7e-3c-0.10843-0.28458-0.14977-19.919-0.0919-43.633 0.10534-43.115 0.10534-43.115 11.448-43.224 11.343-0.10857 11.343-0.10857 11.239 43.524-0.10408 43.633-0.10408 43.633-11.251 43.742-8.697 0.0848-11.19-6e-3 -11.344-0.40867zm113.29 0.23459c-0.15139-0.15137-0.27524-19.83-0.27524-43.731 0-43.456 0-43.456 28.607-43.456 28.607 0 28.607 0 28.607 11.034s0 11.034-17.369 11.034c-17.369 0-17.369 0-17.369 5.5172 0 5.5171 0 5.5171 11.443 5.5171 11.443 0 11.443 0 11.443 10.626 0 10.626 0 10.626-11.443 10.626-11.443 0-11.443 0-11.443 5.717 0 5.717 0 5.717 17.267 5.8237 17.267 0.10661 17.267 0.10661 17.267 10.732 0 10.626 0 10.626-28.23 10.731-15.527 0.0577-28.354-0.019-28.505-0.17029zm70.426-43.459c0-47.38-0.53895-46.512 26.768-43.111 31.705 3.9491 45.489 31.332 26.308 52.264-2.4866 2.7138-2.4866 2.7138-1.1067 4.4431 5.727 7.1771 7.8133 13.434 7.8676 23.594 0.0437 8.1741-22.339 10.453-23.345 2.377-1.2277-9.8626-3.6827-14.366-9.2084-16.891-4.7067-2.1507-4.5868-2.4083-4.7115 10.12-0.10885 10.932-0.10885 10.932-11.341 10.932-11.232 0-11.232 0-11.232-43.728zm28.812-0.5358c10.506-3.6759 10.461-16.027-0.0726-20.052-6.2347-2.3824-6.0422-2.6676-6.1725 9.1449-0.15265 13.841-0.48425 13.262 6.2451 10.907zm45.84 43.992c-0.14987-0.14985-0.27247-19.828-0.27247-43.728 0-43.456 0-43.456 28.607-43.456 28.607 0 28.607 0 28.607 11.034s0 11.034-17.369 11.034c-17.369 0-17.369 0-17.369 5.5172 0 5.5171 0 5.5171 11.45 5.5171 11.45 0 11.45 0 11.341 10.523-0.10913 10.523-0.10913 10.523-11.45 10.632-11.341 0.10857-11.341 0.10857-11.341 5.8192 0 5.7106 0 5.7106 17.267 5.8172 17.267 0.10661 17.267 0.10661 17.376 10.834 0.10899 10.728 0.10899 10.728-28.233 10.728-15.588 0-28.464-0.12262-28.614-0.27244zm69.203-0.34295c0-0.55296 5.1803-10.884 17.11-34.122 6.5032-12.668 28.461-12.291 35.697 0.61301 7.1567 12.762 8.9987 16.052 10.154 18.137 0.57533 1.0385 1.9341 3.4514 3.0194 5.362 4.8263 8.496 5.5439 9.8774 5.3197 10.24-0.69051 1.1172-25.039 0.42154-25.843-0.73841-0.42879-0.61813-2.9371-5.2158-5.5741-10.217-5.7749-10.952-4.4341-11.097-10.393 1.1239-4.9817 10.217-4.9817 10.217-17.236 10.217-10.641 0-12.254-0.081-12.254-0.61539zm82.744 0.1111c-0.10843-0.28459-0.14978-19.919-0.0919-43.633 0.11419-46.787-0.3126-46.115 27.078-42.68 46.565 5.8389 44.992 65.428-1.73 65.559-2.5473 7e-3 -2.5473 7e-3 -2.6564 10.531-0.10913 10.523-0.10913 10.523-11.256 10.632-8.697 0.0848-11.19-6e-3 -11.344-0.40867zm30.367-44.066c11.167-5.4975 5.9027-20.818-7.1532-20.818-0.73447 0-0.76087 22.329-0.0265 22.573 1.0546 0.35152 4.7213-0.5449 7.1799-1.7552zm141.36 44.298c-0.14987-0.14985-0.27247-19.828-0.27247-43.728 0-43.456 0-43.456 11.136-43.453 29.542 8e-3 45.132 8.0042 49.799 25.539 2.5353 9.5266-0.41285 19.189-8.5651 28.071-1.7798 1.9392-1.7798 1.9392 0.32563 4.7116 5.0852 6.6963 7.1757 13.338 7.1757 22.798 0 8.4255-22.441 9.9929-23.404 1.6347-1.2023-10.43-5.8572-17.018-12.106-17.133-1.6796-0.031-1.6796-0.031-1.7884 10.901-0.10886 10.932-0.10886 10.932-11.068 10.932-6.0277 0-11.082-0.12262-11.232-0.27244zm27.926-43.744c11.268-3.6261 11.287-16.465 0.031-20.495-5.7321-2.0524-5.5351-2.3901-5.6574 9.699-0.13343 13.192-0.37545 12.728 5.6262 10.796zm62.738 43.617c-0.14-0.22671-0.2448-14.712-0.2327-32.19 0.026-37.642 1.7233-32.762-11.44-32.894-10.81-0.10913-10.81-0.10913-10.919-11.044-0.10886-10.934-0.10886-10.934 34.329-10.83 34.438 0.1045 34.438 0.1045 34.438 10.73 0 10.626 0 10.626-11.443 10.83-11.443 0.20435-11.443 0.20435-11.647 32.899-0.2044 32.694-0.2044 32.694-11.517 32.803-7.2838 0.07-11.404-0.0382-11.568-0.30363zm-324.83-47.723c-0.0997-0.16857-0.68625-1.5938-1.3034-3.1672-1.2373-3.1546-6.2074-13.242-8.5264-17.306-0.81405-1.4264-1.4801-2.6578-1.4801-2.7363 0-0.2614-7.5918-12.59-10.355-16.816-1.4975-2.2902-2.7227-4.2672-2.7227-4.3933 0-0.12613 6.0631-0.22922 13.473-0.22922 15.706 0 14.788-0.62055 22.796 15.408 2.3315 4.6665 2.673 5.012 3.135 3.1713 0.23751-0.94645 3.2334-8.8182 4.5047-11.836 0.28403-0.67431 0.89775-2.1456 1.3638-3.2694 3.2328-7.7966 3.8892-9.3347 4.4071-10.327 0.32008-0.61357 0.58309-1.2439 0.58444-1.4008 7e-3 -0.80104 10.346-22.202 13.782-28.527 0.67148-1.2362 2.1026-3.9029 3.1802-5.9258 1.0776-2.023 2.3002-4.1662 2.7169-4.7629 0.41673-0.59662 0.75764-1.1894 0.75764-1.3173 0-0.12781 1.5632-2.8491 3.4738-6.0471 1.9106-3.198 3.4738-5.939 3.4738-6.091 0-0.15205 0.22988-0.46073 0.51085-0.68597 0.65413-0.52436 37.496-0.93857 37.496-0.42159 0 0.20128-0.99185 1.5975-2.2041 3.1027-11.478 14.252-22.08 29.574-34.555 49.939-7.3175 11.946-18.866 35.265-23.781 48.02-0.43304 1.1239-0.96167 2.4112-1.1747 2.8608-0.21304 0.44954-0.57052 1.3231-0.79435 1.9412-0.39776 1.0984-28.126 1.8865-28.759 0.81735z" />
  </g>
</svg>